<svg width="1419" height="1419" viewBox="0 0 1419 1419" fill="none" xmlns="http://www.w3.org/2000/svg">
<path d="M1323.28 1047.39C1382.77 939.343 1412.67 817.507 1409.98 694.196C1407.29 570.885 1372.09 450.471 1307.95 345.121C1243.8 239.772 1152.99 153.222 1044.68 94.2181C936.365 35.2142 814.398 5.84752 691.1 9.08606L698.459 289.249C772.438 287.306 845.618 304.926 910.605 340.328C975.592 375.731 1030.08 427.661 1068.57 490.87C1107.05 554.08 1128.17 626.329 1129.79 700.315C1131.4 774.302 1113.46 847.404 1077.77 912.233L1323.28 1047.39Z" fill="url(#paint0_linear_1259_34994)"/>
<path d="M107.535 1068.04C170.65 1174.01 260.62 1261.43 368.352 1321.49C476.085 1381.54 597.761 1412.1 721.084 1410.06C844.407 1408.02 965.007 1373.46 1070.69 1309.88C1176.38 1246.29 1263.41 1155.94 1322.99 1047.94L1077.59 912.565C1041.85 977.363 989.63 1031.58 926.217 1069.73C862.804 1107.88 790.444 1128.61 716.45 1129.84C642.457 1131.06 569.451 1112.73 504.811 1076.69C440.172 1040.66 386.19 988.205 348.321 924.624L107.535 1068.04Z" fill="url(#paint1_linear_1259_34994)"/>
<path d="M700.133 8.90272C576.804 10.5507 456.096 44.7256 350.207 107.974C244.318 171.222 157.001 261.301 97.0815 369.108C37.1618 476.916 6.76273 598.63 8.95638 721.951C11.15 845.271 45.8587 965.828 109.575 1071.44L349.543 926.657C311.313 863.292 290.488 790.959 289.172 716.966C287.856 642.974 306.095 569.945 342.047 505.261C377.999 440.576 430.388 386.529 493.922 348.58C557.455 310.631 629.88 290.126 703.878 289.137L700.133 8.90272Z" fill="url(#paint2_linear_1259_34994)"/>
<circle cx="713.702" cy="148.884" r="140.201" transform="rotate(73.8334 713.702 148.884)" fill="#0038FF"/>
<circle cx="1200.24" cy="979.908" r="140.201" transform="rotate(73.8334 1200.24 979.908)" fill="#0038FF"/>
<circle cx="226.51" cy="994.084" r="140.201" transform="rotate(73.8334 226.51 994.084)" fill="#0038FF"/>
<defs>
<linearGradient id="paint0_linear_1259_34994" x1="1047.4" y1="95.7073" x2="1235.91" y2="999.292" gradientUnits="userSpaceOnUse">
<stop stop-color="#002ED3" stop-opacity="0"/>
<stop offset="1" stop-color="#0038FF"/>
</linearGradient>
<linearGradient id="paint1_linear_1259_34994" x1="1068.03" y1="1311.47" x2="193.225" y2="1017" gradientUnits="userSpaceOnUse">
<stop stop-color="#002ED3" stop-opacity="0"/>
<stop offset="1" stop-color="#0038FF"/>
</linearGradient>
<linearGradient id="paint2_linear_1259_34994" x1="8.90813" y1="718.851" x2="701.466" y2="108.632" gradientUnits="userSpaceOnUse">
<stop stop-color="#002ED3" stop-opacity="0"/>
<stop offset="1" stop-color="#0038FF"/>
</linearGradient>
</defs>
</svg>
