<svg width="157" height="157" viewBox="0 0 157 157" fill="none" xmlns="http://www.w3.org/2000/svg">
<rect width="157" height="157" rx="12" fill="#1C1C1C"/>
<rect width="157" height="157" rx="12" fill="url(#paint0_linear_1208_63229)"/>
<rect x="4.85742" y="4.85547" width="146.811" height="146.811" rx="8" fill="#141414" fill-opacity="0.8"/>
<rect x="29.7012" y="48.0703" width="89.0829" height="57.8728" rx="2.79476" fill="url(#paint1_linear_1208_63229)"/>
<g clip-path="url(#clip0_1208_63229)">
<rect x="38.2617" y="44.9258" width="89.0829" height="57.8728" rx="2.79476" transform="rotate(5.71912 38.2617 44.9258)" fill="#EBEBEB"/>
<circle cx="40.8555" cy="48.0925" r="0.826755" transform="rotate(5.71912 40.8555 48.0925)" fill="#FF4D42"/>
<circle cx="43.3242" cy="48.3386" r="0.826755" transform="rotate(5.71912 43.3242 48.3386)" fill="#FFCA42"/>
<circle cx="45.791" cy="48.5886" r="0.826755" transform="rotate(5.71912 45.791 48.5886)" fill="#00B077"/>
<rect x="69.1973" y="65.5781" width="23.4061" height="23.4061" rx="11.703" transform="rotate(5.71912 69.1973 65.5781)" fill="#0038FF"/>
<g clip-path="url(#clip1_1208_63229)">
<path d="M84.4229 75.5702C84.3778 75.5037 84.3187 75.4479 84.2497 75.4068C84.1807 75.3656 84.1035 75.3402 84.0236 75.3322L76.8366 74.6124L76.7498 73.5203C76.7326 73.3069 76.6411 73.1062 76.4912 72.9534C76.3413 72.8005 76.1425 72.7051 75.9294 72.6838L75.1083 72.6015C74.9636 72.587 74.819 72.6306 74.7064 72.7228C74.5937 72.8149 74.5223 72.948 74.5078 73.0927C74.4933 73.2375 74.5369 73.3821 74.6291 73.4947C74.7212 73.6073 74.8542 73.6787 74.999 73.6932L75.6681 73.7603L76.1771 80.1055C76.191 80.2741 76.2381 80.4382 76.3157 80.5885C76.1342 80.7624 76.0005 80.9801 75.9276 81.2206C75.8547 81.4612 75.845 81.7165 75.8994 81.9619C75.9539 82.2073 76.0707 82.4345 76.2385 82.6217C76.4063 82.8088 76.6195 82.9496 76.8576 83.0303C77.0956 83.1111 77.3505 83.1291 77.5975 83.0828C77.8446 83.0364 78.0755 82.9271 78.2681 82.7655C78.4606 82.6039 78.6083 82.3954 78.6968 82.1601C78.7853 81.9248 78.8117 81.6707 78.7734 81.4222L80.32 81.5771C80.2146 81.8634 80.2015 82.1755 80.2823 82.4697C80.3631 82.7638 80.5338 83.0254 80.7706 83.2177C81.0074 83.41 81.2984 83.5235 81.6029 83.5423C81.9073 83.5611 82.2101 83.4842 82.4687 83.3224C82.7273 83.1606 82.9289 82.922 83.0452 82.64C83.1616 82.358 83.1868 82.0467 83.1175 81.7496C83.0481 81.4525 82.8876 81.1846 82.6585 80.9832C82.4293 80.7819 82.1429 80.6572 81.8394 80.6266L77.4348 80.1855C77.3923 80.1812 77.3526 80.1621 77.3227 80.1316C77.2928 80.1011 77.2745 80.061 77.271 80.0184L77.2234 79.4293L82.2807 79.9358C82.5791 79.9656 82.8784 79.8898 83.1266 79.7216C83.3748 79.5533 83.556 79.3033 83.6387 79.015L84.4964 76.0292C84.5185 75.9519 84.5234 75.8708 84.5107 75.7915C84.498 75.7122 84.468 75.6366 84.4229 75.5702ZM77.6907 81.6814C77.6835 81.7533 77.6551 81.8215 77.6091 81.8774C77.5632 81.9332 77.5017 81.9742 77.4324 81.9951C77.3632 82.0159 77.2893 82.0158 77.2201 81.9947C77.1509 81.9736 77.0895 81.9324 77.0437 81.8765C76.9979 81.8205 76.9698 81.7522 76.9628 81.6802C76.9558 81.6082 76.9704 81.5357 77.0046 81.472C77.0388 81.4082 77.0911 81.3561 77.155 81.3221C77.2188 81.2881 77.2913 81.2738 77.3633 81.281C77.4598 81.2907 77.5485 81.3383 77.6099 81.4134C77.6713 81.4884 77.7004 81.5848 77.6907 81.6814ZM81.6572 82.4461C81.5852 82.4389 81.517 82.4106 81.4611 82.3646C81.4053 82.3186 81.3644 82.2571 81.3435 82.1878C81.3226 82.1186 81.3227 82.0447 81.3438 81.9755C81.3649 81.9063 81.4061 81.845 81.4621 81.7992C81.5181 81.7534 81.5864 81.7252 81.6584 81.7182C81.7304 81.7113 81.8028 81.7258 81.8665 81.76C81.9303 81.7942 81.9824 81.8465 82.0164 81.9104C82.0504 81.9742 82.0647 82.0467 82.0575 82.1187C82.0479 82.2152 82.0002 82.3039 81.9252 82.3653C81.8501 82.4267 81.7537 82.4558 81.6572 82.4461ZM82.5824 78.7126C82.5706 78.7535 82.545 78.7889 82.5099 78.8129C82.4748 78.8369 82.4324 78.8479 82.3901 78.8441L77.1344 78.3177L76.9265 75.724L83.2602 76.3583L82.5824 78.7126Z" fill="white"/>
</g>
</g>
<defs>
<linearGradient id="paint0_linear_1208_63229" x1="109.76" y1="-10.745" x2="-33.6238" y2="155.922" gradientUnits="userSpaceOnUse">
<stop stop-color="#0038FF"/>
<stop offset="1" stop-color="#0038FF" stop-opacity="0"/>
</linearGradient>
<linearGradient id="paint1_linear_1208_63229" x1="29.7012" y1="105.943" x2="93.4251" y2="-0.937224" gradientUnits="userSpaceOnUse">
<stop stop-color="#0038FF" stop-opacity="0.1"/>
<stop offset="1" stop-color="#0038FF"/>
</linearGradient>
<clipPath id="clip0_1208_63229">
<rect x="38.2617" y="44.9258" width="89.0829" height="57.8728" rx="2.79476" transform="rotate(5.71912 38.2617 44.9258)" fill="white"/>
</clipPath>
<clipPath id="clip1_1208_63229">
<rect width="11.703" height="11.703" fill="white" transform="translate(74.4336 71.9844) rotate(5.71912)"/>
</clipPath>
</defs>
</svg>
