<svg width="157" height="157" viewBox="0 0 157 157" fill="none" xmlns="http://www.w3.org/2000/svg">
<rect width="157" height="157" rx="12" fill="#1C1C1C"/>
<rect width="157" height="157" rx="12" fill="url(#paint0_linear_1208_62962)"/>
<rect x="4.85547" y="4.85547" width="146.811" height="146.811" rx="8" fill="#141414" fill-opacity="0.8"/>
<rect x="53.1328" y="43.7461" width="46.3343" height="46.3343" rx="2.78006" transform="rotate(-14.5527 53.1328 43.7461)" fill="url(#paint1_linear_1208_62962)"/>
<g clip-path="url(#clip0_1208_62962)">
<path d="M79.471 54.761L77.3781 55.3043C76.2222 55.6044 75.5284 56.7847 75.8285 57.9406C76.1285 59.0964 77.3088 59.7902 78.4647 59.4901M79.471 54.761L80.5576 58.9468M79.471 54.761L81.5638 54.2177C82.7197 53.9177 83.9 54.6114 84.2001 55.7673C84.5001 56.9232 83.8064 58.1034 82.6505 58.4035M80.5576 58.9468L78.4647 59.4901M80.5576 58.9468L81.6442 63.1326M80.5576 58.9468L82.6505 58.4035M78.4647 59.4901C77.3088 59.7902 76.615 60.9705 76.9151 62.1263C77.2152 63.2822 78.3954 63.976 79.5513 63.6759M81.6442 63.1326L79.5513 63.6759M81.6442 63.1326L82.1875 65.2255C82.4876 66.3814 81.7938 67.5617 80.6379 67.8617C79.4821 68.1618 78.3018 67.468 78.0017 66.3121C77.7017 65.1563 78.3954 63.976 79.5513 63.6759M82.6505 58.4035C83.8064 58.1034 84.9866 58.7972 85.2867 59.9531C85.5868 61.109 84.893 62.2892 83.7371 62.5893C82.5812 62.8894 81.401 62.1956 81.1009 61.0397C80.8008 59.8838 81.4946 58.7036 82.6505 58.4035Z" stroke="white" stroke-width="0.808996" stroke-linecap="round" stroke-linejoin="round"/>
</g>
<g filter="url(#filter0_b_1208_62962)">
<rect x="78.9512" y="70.9336" width="46.3343" height="46.3343" rx="2.78006" transform="rotate(9.28983 78.9512 70.9336)" fill="url(#paint2_linear_1208_62962)"/>
<g clip-path="url(#clip1_1208_62962)">
<path d="M101.133 98.7202L100.988 94.6287C100.98 94.4002 100.976 94.2859 100.937 94.187C100.903 94.0995 100.849 94.0211 100.779 93.9577C100.701 93.886 100.595 93.8416 100.384 93.7528L92.4746 90.418M92.4746 90.418L93.1153 98.9781C93.1324 99.2062 93.1409 99.3202 93.1839 99.4175C93.2219 99.5035 93.279 99.5797 93.3508 99.6403C93.4322 99.7089 93.5392 99.7491 93.7533 99.8296L97.5855 101.27M92.4746 90.418L96.3432 95.7996M99.2086 103.331L102.569 100.915C102.85 100.714 102.991 100.613 103.059 100.481C103.119 100.365 103.14 100.233 103.12 100.104C103.098 99.9573 102.997 99.8168 102.795 99.5359L102.419 99.0129C102.217 98.7319 102.116 98.5915 101.984 98.5235C101.868 98.4636 101.736 98.4421 101.607 98.4618C101.461 98.4843 101.32 98.5853 101.039 98.7872L97.6787 101.203C97.3978 101.405 97.2573 101.506 97.1893 101.638C97.1295 101.754 97.1079 101.886 97.1277 102.015C97.1501 102.161 97.2511 102.302 97.4531 102.583L97.829 103.106C98.031 103.387 98.132 103.527 98.2638 103.595C98.3797 103.655 98.5116 103.676 98.6406 103.657C98.7872 103.634 98.9277 103.533 99.2086 103.331ZM98.2836 97.0022C98.1735 97.6756 97.5382 98.1323 96.8648 98.0221C96.1913 97.9119 95.7347 97.2767 95.8449 96.6033C95.955 95.9298 96.5903 95.4732 97.2637 95.5834C97.9371 95.6935 98.3938 96.3287 98.2836 97.0022Z" stroke="white" stroke-width="0.808996" stroke-linecap="round" stroke-linejoin="round"/>
</g>
</g>
<g filter="url(#filter1_b_1208_62962)">
<rect x="26.7051" y="75.1367" width="46.3343" height="46.3343" rx="2.78006" transform="rotate(-14.0073 26.7051 75.1367)" fill="url(#paint3_linear_1208_62962)"/>
<g clip-path="url(#clip2_1208_62962)">
<path d="M53.1022 90.2916L48.9063 91.3384M59.6959 88.6468L55.4999 89.6935M55.5376 89.8445C57.7387 89.8609 59.7353 91.3572 60.2927 93.5916M50.702 95.9842C50.1446 93.7497 51.2044 91.491 53.1399 90.4427M51.0604 98.4417L51.5399 98.3221C51.8756 98.2383 52.0435 98.1965 52.1554 98.0991C52.2538 98.0135 52.3227 97.899 52.352 97.7718C52.3853 97.6273 52.3435 97.4595 52.2597 97.1237L52.1401 96.6442C52.0563 96.3085 52.0145 96.1407 51.9171 96.0287C51.8315 95.9303 51.717 95.8615 51.5898 95.8321C51.4453 95.7988 51.2775 95.8406 50.9418 95.9244L50.4622 96.044C50.1265 96.1278 49.9587 96.1696 49.8467 96.267C49.7483 96.3526 49.6795 96.4671 49.6501 96.5943C49.6168 96.7388 49.6587 96.9066 49.7424 97.2423L49.862 97.7219C49.9458 98.0576 49.9877 98.2254 50.085 98.3374C50.1706 98.4358 50.2852 98.5046 50.4123 98.534C50.5568 98.5673 50.7247 98.5255 51.0604 98.4417ZM54.3604 91.2512L54.8399 91.1316C55.1756 91.0478 55.3435 91.006 55.4554 90.9087C55.5539 90.8231 55.6227 90.7085 55.652 90.5814C55.6854 90.4368 55.6435 90.269 55.5597 89.9333L55.4401 89.4537C55.3564 89.118 55.3145 88.9502 55.2172 88.8382C55.1316 88.7398 55.017 88.671 54.8899 88.6416C54.7454 88.6083 54.5775 88.6502 54.2418 88.7339L53.7623 88.8535C53.4265 88.9373 53.2587 88.9792 53.1468 89.0765C53.0483 89.1621 52.9795 89.2767 52.9502 89.4038C52.9168 89.5483 52.9587 89.7162 53.0424 90.0519L53.1621 90.5314C53.2458 90.8671 53.2877 91.035 53.385 91.1469C53.4706 91.2453 53.5852 91.3142 53.7123 91.3435C53.8568 91.3768 54.0247 91.335 54.3604 91.2512ZM60.6511 96.0492L61.1306 95.9295C61.4663 95.8458 61.6342 95.8039 61.7461 95.7066C61.8446 95.621 61.9134 95.5064 61.9427 95.3793C61.9761 95.2348 61.9342 95.0669 61.8505 94.7312L61.7308 94.2517C61.6471 93.916 61.6052 93.7481 61.5079 93.6362C61.4223 93.5377 61.3077 93.4689 61.1806 93.4396C61.0361 93.4062 60.8682 93.4481 60.5325 93.5319L60.053 93.6515C59.7173 93.7352 59.5494 93.7771 59.4375 93.8744C59.339 93.96 59.2702 94.0746 59.2409 94.2017C59.2075 94.3462 59.2494 94.5141 59.3331 94.8498L59.4528 95.3293C59.5365 95.6651 59.5784 95.8329 59.6757 95.9448C59.7613 96.0433 59.8759 96.1121 60.003 96.1414C60.1475 96.1748 60.3154 96.1329 60.6511 96.0492ZM60.2953 88.4972C60.3779 88.8283 60.1765 89.1636 59.8454 89.2462C59.5144 89.3288 59.179 89.1273 59.0965 88.7963C59.0139 88.4652 59.2153 88.1299 59.5463 88.0473C59.8774 87.9648 60.2127 88.1662 60.2953 88.4972ZM49.5057 91.1888C49.5883 91.5199 49.3869 91.8552 49.0558 91.9378C48.7248 92.0204 48.3895 91.819 48.3069 91.4879C48.2243 91.1569 48.4257 90.8215 48.7568 90.7389C49.0878 90.6564 49.4231 90.8578 49.5057 91.1888Z" stroke="white" stroke-width="0.808996" stroke-linecap="round" stroke-linejoin="round"/>
</g>
</g>
<defs>
<filter id="filter0_b_1208_62962" x="52.937" y="52.3999" width="90.2745" height="90.2745" filterUnits="userSpaceOnUse" color-interpolation-filters="sRGB">
<feFlood flood-opacity="0" result="BackgroundImageFix"/>
<feGaussianBlur in="BackgroundImageFix" stdDeviation="9.26687"/>
<feComposite in2="SourceAlpha" operator="in" result="effect1_backgroundBlur_1208_62962"/>
<feBlend mode="normal" in="SourceGraphic" in2="effect1_backgroundBlur_1208_62962" result="shape"/>
</filter>
<filter id="filter1_b_1208_62962" x="8.17134" y="45.3881" width="93.2393" height="93.2393" filterUnits="userSpaceOnUse" color-interpolation-filters="sRGB">
<feFlood flood-opacity="0" result="BackgroundImageFix"/>
<feGaussianBlur in="BackgroundImageFix" stdDeviation="9.26687"/>
<feComposite in2="SourceAlpha" operator="in" result="effect1_backgroundBlur_1208_62962"/>
<feBlend mode="normal" in="SourceGraphic" in2="effect1_backgroundBlur_1208_62962" result="shape"/>
</filter>
<linearGradient id="paint0_linear_1208_62962" x1="109.76" y1="-10.745" x2="-33.6238" y2="155.922" gradientUnits="userSpaceOnUse">
<stop stop-color="#A089FF"/>
<stop offset="1" stop-color="#A089FF" stop-opacity="0"/>
</linearGradient>
<linearGradient id="paint1_linear_1208_62962" x1="63.558" y1="80.8136" x2="99.4672" y2="43.7461" gradientUnits="userSpaceOnUse">
<stop stop-color="#A089FF" stop-opacity="0"/>
<stop offset="1" stop-color="#A089FF"/>
</linearGradient>
<linearGradient id="paint2_linear_1208_62962" x1="89.3764" y1="108.001" x2="125.286" y2="70.9336" gradientUnits="userSpaceOnUse">
<stop stop-color="#A089FF" stop-opacity="0"/>
<stop offset="1" stop-color="#A089FF"/>
</linearGradient>
<linearGradient id="paint3_linear_1208_62962" x1="37.1303" y1="112.204" x2="73.0394" y2="75.1367" gradientUnits="userSpaceOnUse">
<stop stop-color="#A089FF" stop-opacity="0.08"/>
<stop offset="1" stop-color="#A089FF"/>
</linearGradient>
<clipPath id="clip0_1208_62962">
<rect width="14.827" height="14.827" fill="white" transform="translate(72.0625 55.7266) rotate(-14.5527)"/>
</clipPath>
<clipPath id="clip1_1208_62962">
<rect width="14.827" height="14.827" fill="white" transform="translate(91.4551 89) rotate(9.28983)"/>
</clipPath>
<clipPath id="clip2_1208_62962">
<rect width="14.827" height="14.827" fill="white" transform="translate(46.0625 87.5898) rotate(-14.0073)"/>
</clipPath>
</defs>
</svg>
